# xmcd CD database file
#
# Track frame offsets:
#	150
#	4537
#	13884
#	29949
#	50386
#	63900
#	80581
#	92864
#	114762
#	123730
#	139492
#	150079
#	162024
#	176473
#
# Disc length: 2427 seconds
#
# Revision: 0
# Processed by: cddbd v1.5.1PL2 Copyright (c) Steve Scherf et al.
# Submitted via: CDex 1.51
#
DISCID=ae09790e
DTITLE=Cuffy - Cuffy's Jukebox
DYEAR=2006
DGENRE=Jazz
TTITLE0=Autumn Breeze
TTITLE1=9-5
TTITLE2=Sharing Warm Heart
TTITLE3=Michikusa
TTITLE4=Rainy Yokohama
TTITLE5=Utatteyo
TTITLE6=Hot Dogs
TTITLE7=A Night Has Come
TTITLE8=Clocktower
TTITLE9=A Long Long Way
TTITLE10=Card Game
TTITLE11=Shownan Swing Night
TTITLE12=Candle Of My Life
TTITLE13=Autumn Breeze (Sax Version)
EXTD=YEAR: 2006
EXTT0=
EXTT1=
EXTT2=
EXTT3=
EXTT4=
EXTT5=
EXTT6=
EXTT7=
EXTT8=
EXTT9=
EXTT10=
EXTT11=
EXTT12=
EXTT13=
PLAYORDER=
